<svg width="31" height="31" viewBox="0 0 31 31" fill="none" xmlns="http://www.w3.org/2000/svg">
<path d="M13.361 26.97C13.361 26.97 11.625 26.97 11.625 25.234C11.625 23.498 13.361 18.29 20.305 18.29C27.249 18.29 28.985 23.498 28.985 25.234C28.985 26.97 27.249 26.97 27.249 26.97H13.361Z" fill="#979797"/>
<path d="M20.3057 17.05C23.045 17.05 25.2657 14.8293 25.2657 12.09C25.2657 9.35067 23.045 7.13 20.3057 7.13C17.5664 7.13 15.3457 9.35067 15.3457 12.09C15.3457 14.8293 17.5664 17.05 20.3057 17.05Z" fill="#979797"/>
<path fill-rule="evenodd" clip-rule="evenodd" d="M10.1067 27.125C9.8339 26.6406 9.6875 26.0664 9.6875 25.42C9.6875 23.109 11.0032 20.7322 13.4384 19.0773C12.3731 18.7775 11.1311 18.6 9.6875 18.6C1.9375 18.6 0 23.715 0 25.42C0 27.125 1.9375 27.125 1.9375 27.125H10.1067Z" fill="#979797"/>
<path d="M8.71875 16.74C11.3939 16.74 13.5625 14.5714 13.5625 11.8962C13.5625 9.22111 11.3939 7.05249 8.71875 7.05249C6.04362 7.05249 3.875 9.22111 3.875 11.8962C3.875 14.5714 6.04362 16.74 8.71875 16.74Z" fill="#979797"/>
</svg>
