<svg width="22" height="21" viewBox="0 0 22 21" fill="none" xmlns="http://www.w3.org/2000/svg">
<path d="M10.2989 0.435836C10.5857 -0.14528 11.4143 -0.145278 11.7011 0.435838L14.4946 6.09609C14.6085 6.32685 14.8286 6.48679 15.0833 6.5238L21.3297 7.43146C21.971 7.52465 22.2271 8.31274 21.763 8.76508L17.2431 13.171C17.0588 13.3506 16.9747 13.6094 17.0182 13.863L18.0852 20.0842C18.1948 20.7229 17.5244 21.21 16.9508 20.9085L11.3638 17.9712C11.1361 17.8514 10.8639 17.8514 10.6362 17.9712L5.0492 20.9085C4.47561 21.21 3.80522 20.7229 3.91476 20.0842L4.98178 13.863C5.02528 13.6094 4.94119 13.3506 4.75692 13.171L0.236966 8.76508C-0.22708 8.31274 0.0289877 7.52465 0.670284 7.43146L6.9167 6.5238C7.17136 6.48679 7.39151 6.32685 7.5054 6.09609L10.2989 0.435836Z" fill="#979797"/>
</svg>
